<?xml version="1.0" encoding="utf-8"?>
<!-- Generator: Adobe Illustrator 27.5.0, SVG Export Plug-In . SVG Version: 6.00 Build 0)  -->
<svg version="1.1" id="레이어_2_00000143616907205572185300000014809811144212649091_"
	 xmlns="http://www.w3.org/2000/svg" xmlns:xlink="http://www.w3.org/1999/xlink" x="0px" y="0px" viewBox="0 0 283.46 283.46"
	 style="enable-background:new 0 0 283.46 283.46;" xml:space="preserve">
<style type="text/css">
	.st0{fill:#C9C9CA;stroke:#000000;stroke-width:6;stroke-linecap:round;stroke-linejoin:round;stroke-miterlimit:10;}
	.st1{fill:#FFFFFF;stroke:#000000;stroke-width:6;stroke-linecap:round;stroke-linejoin:round;stroke-miterlimit:10;}
	.st2{fill:#777777;stroke:#000000;stroke-width:6;stroke-linecap:round;stroke-linejoin:round;stroke-miterlimit:10;}
</style>
<g>
	<polygon class="st0" points="177.53,102.7 142.29,56.94 142.29,174.53 	"/>
	<polygon class="st0" points="142.29,174.53 100.73,159.16 121.27,218.85 142.29,218.85 	"/>
	<polygon class="st1" points="89.25,125.79 71.79,148.46 100.73,159.16 	"/>
	<polygon class="st1" points="142.29,174.53 142.29,56.94 89.25,125.79 100.73,159.16 	"/>
	<polygon class="st0" points="71.79,148.46 121.27,218.85 100.73,159.16 	"/>
	<polygon class="st1" points="142.29,218.85 121.27,218.85 96.66,255.09 142.29,240.75 	"/>
	<polygon class="st2" points="163.31,218.85 183.85,159.16 142.29,174.53 142.29,218.85 	"/>
	<polygon class="st2" points="142.29,240.75 96.66,255.09 142.29,255.09 187.92,255.09 	"/>
	<polygon class="st2" points="163.31,218.85 212.78,148.46 183.85,159.16 	"/>
	<polygon class="st0" points="142.29,218.85 142.29,240.75 187.92,255.09 163.31,218.85 	"/>
	<polygon class="st0" points="212.78,148.46 195.32,125.79 183.85,159.16 	"/>
	<polygon class="st0" points="195.32,125.79 142.29,174.53 183.85,159.16 	"/>
</g>
</svg>
