<?xml version="1.0" encoding="utf-8"?>
<!-- Generator: Adobe Illustrator 27.5.0, SVG Export Plug-In . SVG Version: 6.00 Build 0)  -->
<svg version="1.1" id="레이어_2" xmlns="http://www.w3.org/2000/svg" xmlns:xlink="http://www.w3.org/1999/xlink" x="0px"
	 y="0px" viewBox="0 0 283.46 283.46" style="enable-background:new 0 0 283.46 283.46;" xml:space="preserve">
<style type="text/css">
	.st0{fill:#5A5B5B;stroke:#000000;stroke-width:6;stroke-linecap:round;stroke-linejoin:round;stroke-miterlimit:10;}
	.st1{fill:#393A3A;stroke:#000000;stroke-width:6;stroke-linecap:round;stroke-linejoin:round;stroke-miterlimit:10;}
	.st2{fill:#1C1D1D;stroke:#000000;stroke-width:6;stroke-linecap:round;stroke-linejoin:round;stroke-miterlimit:10;}
</style>
<g>
	<polygon class="st0" points="84.56,91.49 77.25,146.29 156.89,92.22 	"/>
	<polygon class="st1" points="156.89,92.22 77.25,146.29 126.57,146.29 142.28,146.29 	"/>
	<polygon class="st2" points="142.28,146.29 142.28,146.29 190.5,121.08 228.49,56.79 156.89,92.22 	"/>
	<polygon class="st0" points="228.49,56.79 84.56,91.49 156.89,92.22 	"/>
	<polygon class="st0" points="142.28,146.29 126.57,146.29 54.97,254.79 117.8,236.89 	"/>
	<polygon class="st2" points="54.97,254.79 220.09,254.79 117.8,236.89 	"/>
	<polygon class="st2" points="142.28,146.29 220.09,254.79 190.5,121.08 	"/>
	<polygon class="st1" points="142.28,146.29 117.8,236.89 220.09,254.79 142.28,146.29 	"/>
</g>
</svg>
