<?xml version="1.0" encoding="utf-8"?>
<!-- Generator: Adobe Illustrator 27.5.0, SVG Export Plug-In . SVG Version: 6.00 Build 0)  -->
<svg version="1.1" id="레이어_2_00000075123429063534885270000018377958627938960772_"
	 xmlns="http://www.w3.org/2000/svg" xmlns:xlink="http://www.w3.org/1999/xlink" x="0px" y="0px" viewBox="0 0 283.46 283.46"
	 style="enable-background:new 0 0 283.46 283.46;" xml:space="preserve">
<style type="text/css">
	.st0{fill:#323333;stroke:#000000;stroke-width:6;stroke-linecap:round;stroke-linejoin:round;stroke-miterlimit:10;}
	.st1{fill:#C9C9CA;stroke:#000000;stroke-width:6;stroke-linecap:round;stroke-linejoin:round;stroke-miterlimit:10;}
	.st2{fill:#FFFFFF;stroke:#000000;stroke-width:6;stroke-linecap:round;stroke-linejoin:round;stroke-miterlimit:10;}
	.st3{fill:#777777;stroke:#000000;stroke-width:6;stroke-linecap:round;stroke-linejoin:round;stroke-miterlimit:10;}
</style>
<g>
	<g>
		<path class="st0" d="M198.31,104.6"/>
		<polygon class="st0" points="189.87,55.92 168.33,78.81 168.33,78.81 		"/>
		<polygon class="st0" points="168.28,78.87 198.31,104.6 168.33,78.81 		"/>
		<polygon class="st0" points="168.33,78.81 168.33,78.81 168.28,78.87 		"/>
		<polygon class="st1" points="198.31,104.6 189.87,55.92 168.33,78.81 		"/>
		<polygon class="st2" points="115.13,78.81 93.6,55.92 85.15,104.6 		"/>
	</g>
	<g>
		<polygon class="st2" points="141.73,55.92 85.15,104.6 69.9,192.51 141.73,215.99 		"/>
		<polygon class="st3" points="141.73,215.99 59.18,254.33 141.73,254.33 224.29,254.33 		"/>
		<polygon class="st1" points="213.56,192.51 224.29,254.33 198.31,104.6 141.73,55.92 141.73,215.99 		"/>
		<path class="st0" d="M69.9,192.51l-10.72,61.82L69.9,192.51z"/>
		<polygon class="st1" points="69.9,192.51 59.18,254.33 141.73,215.99 		"/>
		<polygon class="st1" points="141.73,215.99 224.29,254.33 213.56,192.51 		"/>
	</g>
</g>
</svg>
