<?xml version="1.0" encoding="utf-8"?>
<!-- Generator: Adobe Illustrator 27.5.0, SVG Export Plug-In . SVG Version: 6.00 Build 0)  -->
<svg version="1.1" id="레이어_1" xmlns="http://www.w3.org/2000/svg" xmlns:xlink="http://www.w3.org/1999/xlink" x="0px"
	 y="0px" viewBox="0 0 283.46 283.46" style="enable-background:new 0 0 283.46 283.46;" xml:space="preserve">
<style type="text/css">
	.st0{fill:#393A3A;stroke:#000000;stroke-width:6;stroke-linecap:round;stroke-linejoin:round;stroke-miterlimit:10;}
	.st1{fill:#5A5B5B;stroke:#000000;stroke-width:6;stroke-linecap:round;stroke-linejoin:round;stroke-miterlimit:10;}
	.st2{fill:#323333;stroke:#000000;stroke-width:6;stroke-linecap:round;stroke-linejoin:round;stroke-miterlimit:10;}
	.st3{fill:#1C1D1D;stroke:#000000;stroke-width:6;stroke-linecap:round;stroke-linejoin:round;stroke-miterlimit:10;}
</style>
<g>
	<polygon class="st0" points="109.92,219.32 103.17,254.79 141.73,235.35 	"/>
	<polygon class="st0" points="141.73,235.35 141.73,235.35 141.73,235.35 80.65,122.2 109.92,219.32 	"/>
	<polygon class="st1" points="141.73,56.33 80.65,122.2 141.73,148.1 	"/>
	<path class="st2" d="M141.73,235.35L141.73,235.35L141.73,235.35z"/>
	<polygon class="st1" points="202.82,122.2 141.73,56.33 141.73,148.1 	"/>
	<polygon class="st3" points="141.73,235.35 173.54,219.32 202.82,122.2 	"/>
	<polygon class="st3" points="141.73,235.35 141.73,235.35 103.17,254.79 141.73,254.79 180.3,254.79 	"/>
	<polygon class="st0" points="141.73,235.35 141.73,235.35 180.3,254.79 173.54,219.32 	"/>
	<polygon class="st1" points="141.73,235.35 141.73,148.1 80.65,122.2 	"/>
	<polygon class="st0" points="141.73,235.35 202.82,122.2 141.73,148.1 	"/>
</g>
</svg>
